<svg width="164" height="56" viewBox="0 0 164 56" fill="none" xmlns="http://www.w3.org/2000/svg">
<g clip-path="url(#clip0_23473_1172)">
<path d="M0.5 54.684C0.564186 54.0056 0.646865 53.3272 0.689293 52.6466C1.03307 47.0871 1.37358 41.5268 1.71082 35.9658C1.7935 34.6198 1.88597 33.2738 1.97845 31.8628H2.70189C4.58612 31.8628 6.47144 31.8801 8.35893 31.8498C8.8115 31.8422 8.97359 31.9885 9.09 32.4079C10.5217 37.5415 12.1133 42.6351 13.0641 47.8901C13.0848 48.0273 13.1548 48.1525 13.261 48.2423C13.3937 47.6929 13.5058 47.1391 13.6602 46.5972C15.031 41.8028 16.409 37.0101 17.7942 32.2193C17.8334 32.0817 18.002 31.8801 18.1119 31.879C20.2996 31.8617 22.4863 31.8617 24.7328 31.8617C25.144 39.7794 25.5531 47.6528 25.9643 55.5586H20.8621C20.6521 49.351 20.4432 43.1661 20.2409 37.1817C18.4905 43.0577 16.6835 49.1234 14.8689 55.2118C13.5525 55.2118 12.2862 55.2259 11.0221 55.1901C10.8883 55.1901 10.6957 54.9084 10.6446 54.7252C10.0038 52.3995 9.33913 50.0771 8.76907 47.734C7.92487 44.2899 7.14593 40.8296 6.33981 37.3757C6.31229 37.2314 6.25845 37.0933 6.18097 36.9682C5.90465 43.1556 5.62796 49.3488 5.35091 55.5478H0.5V54.684Z" fill="#006631"/>
<path d="M59.9809 55.5956H56.4671C55.4575 55.5956 55.4629 55.5956 55.3987 54.6039C55.3683 54.1271 55.3117 53.6524 55.2671 53.1756L55.1181 53.077C55.109 53.1514 55.0899 53.2243 55.0615 53.2937C53.4199 56.2631 48.2992 57.2352 45.1867 53.932C43.6538 52.3064 42.9815 50.3156 42.8194 48.1438C42.6628 46.0305 42.9141 43.9704 43.8954 42.0478C45.5381 38.828 48.9421 37.2794 52.2482 38.2363C53.2444 38.5026 54.1193 39.1003 54.7275 39.9302V30.6101H59.9809V55.5956ZM54.8015 46.8498H54.7514C54.7514 46.2733 54.7732 45.6957 54.7514 45.1159C54.6894 43.7742 53.7169 42.5398 52.4669 42.1898C51.8344 42.0128 51.1623 42.0359 50.5436 42.2559C49.9248 42.4758 49.3899 42.8818 49.0128 43.4177C47.7606 45.1657 47.7182 48.5426 48.928 50.308C49.6971 51.4297 50.9416 51.9271 52.2917 51.6519C53.4721 51.4113 54.449 50.4012 54.647 49.1105C54.7601 48.3649 54.7536 47.6041 54.8015 46.8498Z" fill="#006631"/>
<path d="M163.499 25.7928C163.08 26.455 162.748 27.0077 162.389 27.5431C160.316 30.6263 157.82 33.2728 154.486 35.0403C150.484 37.1655 146.253 37.4907 141.876 36.5576C138.553 35.8488 135.507 34.4627 132.556 32.8035C131.253 32.0654 129.9 31.4194 128.506 30.8701C127.728 30.5555 126.89 30.419 126.052 30.4708C125.214 30.5225 124.399 30.7613 123.666 31.1692C122.207 31.9582 120.812 32.8696 119.417 33.7702C118.591 34.3012 118.529 34.3565 117.458 34.2189C117.458 34.1864 117.444 34.1376 117.458 34.1257C120.765 31.5691 124.12 29.0841 127.902 27.2483C129.618 26.4149 131.408 25.8004 133.32 25.5739C135.496 25.3171 137.563 25.7343 139.619 26.403C141.542 27.0305 143.46 27.6861 145.415 28.2063C147.101 28.655 148.844 28.681 150.694 28.4437C149.597 28.3266 148.606 28.2659 147.63 28.1088C145.15 27.7089 142.83 26.7628 140.47 25.9576C138.654 25.3377 136.827 24.7731 134.901 24.5812C132.688 24.3511 130.458 24.7839 128.494 25.8243C128.399 25.873 128.303 25.9196 128.149 25.9966C128.159 25.9223 128.179 25.8495 128.207 25.7798C129.247 24.0925 130.477 22.5655 132.06 21.3463C135.055 19.0401 138.425 18.5752 142.039 19.3609C145.338 20.0772 148.293 21.5945 151.178 23.2764C151.83 23.6601 152.496 24.035 153.124 24.4609C155.381 25.9901 157.876 26.3932 160.539 26.0757C161.473 25.9576 162.412 25.8947 163.499 25.7928Z" fill="#006631"/>
<path d="M122.032 29.1524C121.777 26.1288 121.393 23.1301 122.903 20.2918C122.116 20.9193 121.143 23.0087 120.779 25.1805C120.484 26.9491 120.344 28.7438 120.132 30.5862C119.884 30.4203 119.538 30.2394 119.251 29.9901C117.806 28.7341 117.092 27.064 116.749 25.2498C115.853 20.5985 116.561 16.2429 119.42 12.3621C120.811 10.4731 122.319 8.66873 123.699 6.77328C124.715 5.37635 125.657 3.9209 126.536 2.43835C126.948 1.74476 127.134 0.921125 127.477 0.00537109C127.779 1.05984 128.078 1.99294 128.311 2.94337C129.353 7.18835 130.009 11.4832 130.142 15.8647C130.25 19.3327 129.38 22.4755 127.568 25.4189C127.059 26.2447 126.491 26.8722 125.576 27.2775C124.382 27.7966 123.27 28.4826 122.032 29.1524Z" fill="#A0C938"/>
<path d="M31.2439 48.6672C31.344 49.9113 31.9271 50.7079 32.8844 51.2476C34.2214 52.0062 35.6857 52.0777 37.1598 51.9173C38.2869 51.7949 39.4009 51.5564 40.5932 51.357C40.8021 52.4516 41.0284 53.6253 41.2775 54.9442C40.2581 55.2 39.2616 55.5121 38.2412 55.6931C36.357 56.029 34.4619 56.081 32.5733 55.6692C29.1116 54.9106 26.8129 52.3747 26.3777 48.8655C26.0884 46.5312 26.3679 44.2954 27.4906 42.206C29.8296 37.8527 34.5054 37.3682 37.5602 38.4856C39.8817 39.333 41.1361 41.1515 41.7768 43.4371C42.2501 45.1278 42.2729 46.8509 42.026 48.6672H31.2439ZM31.258 45.0031H37.3274C37.4264 43.0416 36.2786 41.6251 34.5717 41.5623C32.7626 41.4962 31.2994 42.9917 31.258 45.0031Z" fill="#006631"/>
<path d="M60.7178 54.4836L61.4695 52.0354C62.6433 52.4386 63.7726 52.9176 64.9508 53.2058C66.2791 53.531 67.6455 53.531 68.9683 53.0758C70.3826 52.587 71.3193 51.6409 71.5738 50.1606C71.8415 48.6011 71.5031 47.163 70.1389 46.2212C69.2142 45.5818 68.1481 45.1429 67.1418 44.6216C66.117 44.0906 65.0313 43.6549 64.0739 43.0242C61.8818 41.5828 60.8842 39.5151 61.302 36.9022C61.7001 34.4096 63.2395 32.784 65.5948 31.9918C68.147 31.1324 70.6916 31.347 73.1817 32.3429C73.6082 32.5131 73.7725 32.7103 73.5745 33.1861C73.3199 33.7962 73.1459 34.44 72.9217 35.1205C71.4781 34.3197 69.9605 33.9479 68.3657 34.0368C67.6446 34.0645 66.934 34.2178 66.266 34.4898C63.9281 35.515 63.456 38.6145 65.4262 40.2618C66.2541 40.9543 67.2952 41.4051 68.2677 41.9123C69.2751 42.4379 70.3532 42.8345 71.3356 43.3981C73.8824 44.8579 74.9605 47.1131 74.5993 49.9872C74.2337 52.936 72.4801 54.7859 69.6494 55.5706C66.5641 56.4278 63.604 55.9618 60.7178 54.4836Z" fill="#A0C938"/>
<path d="M120.262 38.2157C124.516 38.2244 127.713 41.1743 128.148 45.4616C128.326 47.2248 128.234 48.9523 127.638 50.6321C126.4 54.1228 123.157 56.2187 119.401 55.9673C115.825 55.7278 112.997 53.1799 112.279 49.5321C111.871 47.4589 111.952 45.4063 112.699 43.4122C113.925 40.1383 116.752 38.2081 120.262 38.2157ZM125.151 47.0102C125.131 45.4085 124.804 43.8002 123.795 42.3979C123.385 41.8223 122.844 41.3518 122.216 41.025C121.588 40.6982 120.892 40.5244 120.183 40.5178C119.475 40.5112 118.775 40.6721 118.141 40.9873C117.507 41.3024 116.957 41.7628 116.537 42.3307C114.667 44.8113 114.649 49.2579 116.502 51.7592C118.319 54.2149 121.659 54.3048 123.586 51.9391C124.737 50.5324 125.12 48.8699 125.151 47.0102Z" fill="#A0C938"/>
<path d="M78.1589 47.6214C77.9055 51.0894 80.2695 53.5408 83.7899 53.5527C85.3412 53.5581 86.8588 53.3533 88.3591 52.6792C88.5473 53.4226 88.7257 54.1271 88.9367 54.9648C88.0338 55.2184 87.1678 55.5164 86.2768 55.7007C84.5786 56.0518 82.8565 56.145 81.155 55.7364C78.4842 55.0927 76.6468 53.4606 75.7928 50.8661C74.8278 47.94 75.004 45.0226 76.3987 42.2526C78.0219 39.0317 81.4672 37.5308 84.9507 38.4476C86.6184 38.8876 87.8521 39.8933 88.6691 41.3878C89.7244 43.3201 90.0061 45.3976 89.757 47.6214H78.1589ZM86.9709 45.3748C86.9154 44.8828 86.886 44.4515 86.8142 44.0278C86.5009 42.1605 85.3129 40.8123 83.7355 40.5164C81.7457 40.1436 80.1074 40.8719 79.0706 42.5907C78.5673 43.4423 78.2538 44.3919 78.1513 45.3748H86.9709Z" fill="#A0C938"/>
<path d="M94.1324 55.5705H91.1211V38.5873H93.6537C93.7135 39.4619 93.7734 40.3506 93.8452 41.3931C94.0073 41.1569 94.1008 41.0247 94.1911 40.8903C95.91 38.3348 99.4489 37.4375 102.133 38.9016C103.973 39.9084 104.768 41.6001 105.093 43.5617C105.174 44.0597 105.216 44.5634 105.218 45.0681C105.23 48.4569 105.227 51.8457 105.228 55.2346C105.228 55.3223 105.216 55.4101 105.206 55.5413H102.224V54.891C102.224 51.8804 102.251 48.8698 102.207 45.8603C102.205 44.98 102.079 44.1044 101.831 43.2593C101.129 40.9954 98.806 40.0558 96.6835 41.1428C94.957 42.026 94.1498 43.5097 94.1378 45.4116C94.1171 48.5663 94.1324 51.7211 94.1324 54.8758V55.5705Z" fill="#A0C938"/>
<path d="M129.555 38.5809H132.079C132.129 39.682 132.179 40.7668 132.233 41.9633C133.974 38.8822 135.514 37.8711 137.732 38.3035V41.1386C137.376 41.1386 137.022 41.1386 136.668 41.1386C135.397 41.1526 134.408 41.7108 133.669 42.7186C132.891 43.7796 132.606 44.9945 132.604 46.2841C132.599 49.1705 132.599 52.0561 132.604 54.941V55.5555H129.558L129.555 38.5809Z" fill="#A0C938"/>
<path d="M107.719 38.5863H110.656V55.5478H107.719V38.5863Z" fill="#A0C938"/>
<path d="M78.6191 36.2325C79.6983 34.5494 80.6937 32.9888 81.6913 31.4283C81.6999 31.4126 81.7093 31.3974 81.7196 31.3828C81.9524 31.1021 83.8519 31.1075 84.0509 31.4088C85.0823 32.9704 86.1016 34.5408 87.1993 36.2205C86.4149 36.2205 85.7252 36.2357 85.0377 36.2064C84.9289 36.201 84.7929 36.0168 84.7113 35.8889C84.2022 35.0588 83.7072 34.2221 83.2046 33.3887C83.1154 33.2392 83.012 33.0983 82.8782 32.8956C82.2723 33.9068 81.6902 34.854 81.1376 35.8217C80.9657 36.1208 80.7764 36.2671 80.4131 36.2465C79.8572 36.2086 79.298 36.2325 78.6191 36.2325Z" fill="#A0C938"/>
<path d="M111.039 33.7778C111.054 34.8886 110.252 35.7014 109.137 35.7068C108.094 35.7068 107.319 34.9222 107.297 33.8352C107.276 32.7482 108.101 31.8704 109.173 31.8639C110.227 31.8617 111.03 32.6756 111.039 33.7778Z" fill="#A0C938"/>
</g>
<defs>
<clipPath id="clip0_23473_1172">
<rect width="163" height="56" fill="white" transform="translate(0.5)"/>
</clipPath>
</defs>
</svg>
